<?xml version="1.0" encoding="UTF-8" standalone="no"?>
<!DOCTYPE svg PUBLIC "-//W3C//DTD SVG 1.1//EN"
 "http://www.w3.org/Graphics/SVG/1.1/DTD/svg11.dtd">
<!-- Generated by graphviz version 2.38.0 (20140413.2041)
 -->
<!-- Title: G Pages: 1 -->
<svg width="879pt" height="364pt"
 viewBox="0.00 0.00 879.00 364.00" xmlns="http://www.w3.org/2000/svg" xmlns:xlink="http://www.w3.org/1999/xlink">
<g id="graph0" class="graph" transform="scale(1 1) rotate(0) translate(4 360)">
<title>G</title>
<polygon fill="white" stroke="none" points="-4,4 -4,-360 875,-360 875,4 -4,4"/>
<g id="clust1" class="cluster"><title>cluster_Recv_311</title>
<polygon fill="none" stroke="black" points="8,-152 8,-348 166,-348 166,-152 8,-152"/>
</g>
<g id="clust2" class="cluster"><title>cluster_Recv_330</title>
<polygon fill="none" stroke="black" points="174,-152 174,-348 332,-348 332,-152 174,-152"/>
</g>
<g id="clust3" class="cluster"><title>cluster_Send_298</title>
<polygon fill="none" stroke="black" points="707,-224 707,-348 863,-348 863,-224 707,-224"/>
</g>
<g id="clust4" class="cluster"><title>cluster_Work_349</title>
<polygon fill="none" stroke="black" points="340,-224 340,-348 467,-348 467,-224 340,-224"/>
</g>
<g id="clust5" class="cluster"><title>cluster_main</title>
<polygon fill="none" stroke="black" points="475,-8 475,-348 699,-348 699,-8 475,-8"/>
</g>
<!-- label0 -->
<g id="node1" class="node"><title>label0</title>
<text text-anchor="middle" x="87" y="-318.3" font-family="Times,serif" font-size="14.00">Recv_311</text>
</g>
<!-- RecvOp1 -->
<g id="node2" class="node"><title>RecvOp1</title>
<polygon fill="none" stroke="black" points="157.5,-268 16.5,-268 16.5,-232 157.5,-232 157.5,-268"/>
<text text-anchor="middle" x="87" y="-246.3" font-family="Times,serif" font-size="14.00">Recv main.main.t0@0</text>
</g>
<!-- label0&#45;&gt;RecvOp1 -->
<g id="edge1" class="edge"><title>label0&#45;&gt;RecvOp1</title>
<path fill="none" stroke="black" d="M87,-303.697C87,-295.983 87,-286.712 87,-278.112"/>
<polygon fill="black" stroke="black" points="90.5001,-278.104 87,-268.104 83.5001,-278.104 90.5001,-278.104"/>
</g>
<!-- SendOp2 -->
<g id="node3" class="node"><title>SendOp2</title>
<polygon fill="none" stroke="black" points="157,-196 17,-196 17,-160 157,-160 157,-196"/>
<text text-anchor="middle" x="87" y="-174.3" font-family="Times,serif" font-size="14.00">Send main.main.t1@0</text>
</g>
<!-- RecvOp1&#45;&gt;SendOp2 -->
<g id="edge2" class="edge"><title>RecvOp1&#45;&gt;SendOp2</title>
<path fill="none" stroke="black" d="M87,-231.697C87,-223.983 87,-214.712 87,-206.112"/>
<polygon fill="black" stroke="black" points="90.5001,-206.104 87,-196.104 83.5001,-206.104 90.5001,-206.104"/>
</g>
<!-- label3 -->
<g id="node4" class="node"><title>label3</title>
<text text-anchor="middle" x="253" y="-318.3" font-family="Times,serif" font-size="14.00">Recv_330</text>
</g>
<!-- RecvOp4 -->
<g id="node5" class="node"><title>RecvOp4</title>
<polygon fill="none" stroke="black" points="323.5,-268 182.5,-268 182.5,-232 323.5,-232 323.5,-268"/>
<text text-anchor="middle" x="253" y="-246.3" font-family="Times,serif" font-size="14.00">Recv main.main.t0@0</text>
</g>
<!-- label3&#45;&gt;RecvOp4 -->
<g id="edge3" class="edge"><title>label3&#45;&gt;RecvOp4</title>
<path fill="none" stroke="black" d="M253,-303.697C253,-295.983 253,-286.712 253,-278.112"/>
<polygon fill="black" stroke="black" points="256.5,-278.104 253,-268.104 249.5,-278.104 256.5,-278.104"/>
</g>
<!-- SendOp5 -->
<g id="node6" class="node"><title>SendOp5</title>
<polygon fill="none" stroke="black" points="323,-196 183,-196 183,-160 323,-160 323,-196"/>
<text text-anchor="middle" x="253" y="-174.3" font-family="Times,serif" font-size="14.00">Send main.main.t1@0</text>
</g>
<!-- RecvOp4&#45;&gt;SendOp5 -->
<g id="edge4" class="edge"><title>RecvOp4&#45;&gt;SendOp5</title>
<path fill="none" stroke="black" d="M253,-231.697C253,-223.983 253,-214.712 253,-206.112"/>
<polygon fill="black" stroke="black" points="256.5,-206.104 253,-196.104 249.5,-206.104 256.5,-206.104"/>
</g>
<!-- label6 -->
<g id="node7" class="node"><title>label6</title>
<text text-anchor="middle" x="394" y="-318.3" font-family="Times,serif" font-size="14.00">Work_349</text>
</g>
<!-- label7 -->
<g id="node8" class="node"><title>label7</title>
<text text-anchor="middle" x="394" y="-246.3" font-family="Times,serif" font-size="14.00">main.Work#1</text>
</g>
<!-- label6&#45;&gt;label7 -->
<g id="edge5" class="edge"><title>label6&#45;&gt;label7</title>
<path fill="none" stroke="black" d="M394,-303.697C394,-295.983 394,-286.712 394,-278.112"/>
<polygon fill="black" stroke="black" points="397.5,-278.104 394,-268.104 390.5,-278.104 397.5,-278.104"/>
</g>
<!-- label7&#45;&gt;label7 -->
<g id="edge6" class="edge"><title>label7&#45;&gt;label7</title>
<path fill="none" stroke="black" d="M440.674,-263.137C450.988,-261.902 458.5,-257.523 458.5,-250 458.5,-245.18 455.417,-241.651 450.489,-239.412"/>
<polygon fill="black" stroke="black" points="451.232,-235.989 440.674,-236.863 449.473,-242.765 451.232,-235.989"/>
</g>
<!-- label8 -->
<g id="node9" class="node"><title>label8</title>
<text text-anchor="middle" x="587" y="-318.3" font-family="Times,serif" font-size="14.00">main</text>
</g>
<!-- NewChanOp9 -->
<g id="node10" class="node"><title>NewChanOp9</title>
<polygon fill="none" stroke="red" points="691,-268 483,-268 483,-232 691,-232 691,-268"/>
<text text-anchor="middle" x="587" y="-246.3" font-family="Times,serif" font-size="14.00">Channel main.main.t0@0 Type:int</text>
</g>
<!-- label8&#45;&gt;NewChanOp9 -->
<g id="edge7" class="edge"><title>label8&#45;&gt;NewChanOp9</title>
<path fill="none" stroke="black" d="M587,-303.697C587,-295.983 587,-286.712 587,-278.112"/>
<polygon fill="black" stroke="black" points="590.5,-278.104 587,-268.104 583.5,-278.104 590.5,-278.104"/>
</g>
<!-- NewChanOp10 -->
<g id="node11" class="node"><title>NewChanOp10</title>
<polygon fill="none" stroke="red" points="691,-196 483,-196 483,-160 691,-160 691,-196"/>
<text text-anchor="middle" x="587" y="-174.3" font-family="Times,serif" font-size="14.00">Channel main.main.t1@0 Type:int</text>
</g>
<!-- NewChanOp9&#45;&gt;NewChanOp10 -->
<g id="edge8" class="edge"><title>NewChanOp9&#45;&gt;NewChanOp10</title>
<path fill="none" stroke="black" d="M587,-231.697C587,-223.983 587,-214.712 587,-206.112"/>
<polygon fill="black" stroke="black" points="590.5,-206.104 587,-196.104 583.5,-206.104 590.5,-206.104"/>
</g>
<!-- RecvOp11 -->
<g id="node12" class="node"><title>RecvOp11</title>
<polygon fill="none" stroke="black" points="657.5,-124 516.5,-124 516.5,-88 657.5,-88 657.5,-124"/>
<text text-anchor="middle" x="587" y="-102.3" font-family="Times,serif" font-size="14.00">Recv main.main.t1@0</text>
</g>
<!-- NewChanOp10&#45;&gt;RecvOp11 -->
<g id="edge9" class="edge"><title>NewChanOp10&#45;&gt;RecvOp11</title>
<path fill="none" stroke="black" d="M587,-159.697C587,-151.983 587,-142.712 587,-134.112"/>
<polygon fill="black" stroke="black" points="590.5,-134.104 587,-124.104 583.5,-134.104 590.5,-134.104"/>
</g>
<!-- RecvOp12 -->
<g id="node13" class="node"><title>RecvOp12</title>
<polygon fill="none" stroke="black" points="657.5,-52 516.5,-52 516.5,-16 657.5,-16 657.5,-52"/>
<text text-anchor="middle" x="587" y="-30.3" font-family="Times,serif" font-size="14.00">Recv main.main.t1@0</text>
</g>
<!-- RecvOp11&#45;&gt;RecvOp12 -->
<g id="edge10" class="edge"><title>RecvOp11&#45;&gt;RecvOp12</title>
<path fill="none" stroke="black" d="M587,-87.6966C587,-79.9827 587,-70.7125 587,-62.1124"/>
<polygon fill="black" stroke="black" points="590.5,-62.1043 587,-52.1043 583.5,-62.1044 590.5,-62.1043"/>
</g>
<!-- label13 -->
<g id="node14" class="node"><title>label13</title>
<text text-anchor="middle" x="785" y="-318.3" font-family="Times,serif" font-size="14.00">Send_298</text>
</g>
<!-- SendOp14 -->
<g id="node15" class="node"><title>SendOp14</title>
<polygon fill="none" stroke="black" points="855,-268 715,-268 715,-232 855,-232 855,-268"/>
<text text-anchor="middle" x="785" y="-246.3" font-family="Times,serif" font-size="14.00">Send main.main.t0@0</text>
</g>
<!-- label13&#45;&gt;SendOp14 -->
<g id="edge11" class="edge"><title>label13&#45;&gt;SendOp14</title>
<path fill="none" stroke="black" d="M785,-303.697C785,-295.983 785,-286.712 785,-278.112"/>
<polygon fill="black" stroke="black" points="788.5,-278.104 785,-268.104 781.5,-278.104 788.5,-278.104"/>
</g>
</g>
</svg>
